<?xml version="1.0" encoding="utf-8"?>
<svg viewBox="-424.741 117.985 1298 317.661" xmlns="http://www.w3.org/2000/svg">
  <g transform="matrix(1.202598, 0, 0, 0.352479, 222.854102, 252.297844)" id="3bd3ce4a-2119-49bb-b46f-4c938ac59d3c" style="">
    <rect style="stroke: none; stroke-width: 1; stroke-dasharray: none; stroke-linecap: butt; stroke-dashoffset: 0; stroke-linejoin: miter; stroke-miterlimit: 4; fill: rgb(255,255,255); fill-opacity: 0; fill-rule: nonzero; opacity: 1;" vector-effect="non-scaling-stroke" x="-540" y="-540" rx="0" ry="0" width="1080" height="1080"/>
  </g>
  <g transform="matrix(1, 0, 0, 1, 85.563784, 147.18488)" id="f918b96e-ead4-4d3e-8059-089d9a3b6645"/>
  <g transform="matrix(0.29, 0, 0, -0.29, 140.748616, 271.4907)">
    <path style="stroke: rgb(0,0,0); stroke-width: 0; stroke-dasharray: none; stroke-linecap: butt; stroke-dashoffset: 0; stroke-linejoin: miter; stroke-miterlimit: 4; fill: rgb(0,32,63); fill-rule: nonzero; opacity: 1;" vector-effect="non-scaling-stroke" transform=" translate(-1667.5, -197)" d="M 234 -20 Q 151 -20 121 52 Q 100 101 88 176 Q 58 142 48 129 Q 38 117 30 117 Q 18 117 18 127 Q 18 133 24 139 Q 59 174 84 203 Q 76 260 76 324 Q 76 389 88 446 Q 100 503 128 541 Q 157 580 199 580 Q 250 580 250 493 Q 250 381 160 262 Q 167 172 195 93 Q 206 61 219 45 Q 233 30 257 30 Q 282 30 312 63 Q 343 97 369 150 Q 395 204 413 279 Q 431 355 431 437 Q 431 519 419 552 Q 407 586 378 613 Q 340 645 340 676 Q 340 691 352 702 Q 365 714 378 714 Q 411 714 433 693 Q 456 672 466 636 Q 484 573 484 498 Q 484 357 445 235 Q 407 113 349 46 Q 292 -20 234 -20 Z M 212 480 Q 212 533 200 533 Q 192 533 182 509 Q 172 485 164 442 Q 156 399 156 358 Q 156 317 157 300 Q 212 392 212 480 Z M 544 489 Q 544 507 563 520 Q 582 533 597 533 Q 624 533 624 502 Q 624 471 608 448 Q 592 426 563 426 Q 544 426 544 489 Z M 573 -5 Q 534 -5 514 11 Q 507 18 507 61 Q 507 104 513 204 Q 520 305 525 313 Q 530 321 556 343 Q 582 365 596 365 Q 611 365 611 327 Q 611 317 605 288 Q 600 259 593 246 Q 580 213 580 73 Q 580 46 586 46 Q 603 47 633 88 Q 663 130 692 195 Q 722 260 728 260 Q 735 260 735 252 Q 735 224 706 163 Q 627 -5 573 -5 Z M 769 261 L 824 267 Q 832 267 838 258 Q 844 249 844 239 Q 844 229 837 171 Q 831 113 831 79 Q 831 46 837 46 Q 854 47 884 88 Q 914 130 943 195 Q 973 260 979 260 Q 986 260 986 252 Q 986 224 957 163 Q 878 -5 824 -5 Q 785 -5 765 11 Q 758 18 758 98 Q 758 178 775 235 Q 717 235 694 272 Q 682 291 682 315 Q 682 339 692 357 Q 702 375 720 375 Q 739 375 754 355 Q 770 336 770 312 Q 770 288 756 264 Q 760 261 769 261 Z M 1161 163 Q 1082 -5 1027 -5 Q 973 -5 963 8 Q 954 21 954 94 Q 954 167 968 305 Q 918 315 915 346 Q 915 362 936 362 Q 957 362 973 354 Q 982 426 994 500 Q 997 519 1013 536 Q 1029 553 1044 553 Q 1057 553 1057 512 Q 1057 493 1043 337 Q 1070 342 1102 357 Q 1135 372 1141 372 Q 1159 372 1159 361 Q 1160 351 1122 333 Q 1084 316 1040 307 Q 1028 161 1028 86 Q 1028 46 1040 46 Q 1058 47 1088 88 Q 1118 129 1147 194 Q 1177 260 1183 260 Q 1190 260 1190 252 Q 1190 224 1161 163 Z M 1138 87 L 1144 199 Q 1144 306 1154 316 Q 1164 326 1189 345 Q 1215 365 1226 365 Q 1238 365 1241 361 Q 1244 357 1244 345 Q 1244 302 1225 258 Q 1210 166 1210 107 Q 1210 48 1229 48 Q 1252 48 1283 88 Q 1314 128 1345 207 Q 1354 307 1359 315 Q 1365 323 1387 344 Q 1409 365 1423 365 Q 1438 365 1438 327 Q 1438 317 1432 288 Q 1427 259 1420 246 Q 1409 218 1409 73 Q 1409 46 1415 46 Q 1432 47 1462 88 Q 1492 130 1521 195 Q 1551 260 1557 260 Q 1564 260 1564 252 Q 1564 224 1535 163 Q 1456 -5 1402 -5 Q 1363 -5 1343 11 Q 1336 18 1336 54 Q 1336 90 1339 134 Q 1307 66 1275 30 Q 1243 -5 1203 -5 Q 1164 -5 1151 16 Q 1138 37 1138 87 Z M 1955 480 L 1949 406 Q 1949 266 1967 159 Q 1985 53 2010 53 Q 2044 53 2085 148 Q 2126 243 2126 338 Q 2126 447 2103 486 Q 2094 500 2075 519 Q 2040 554 2040 586 Q 2040 601 2048 610 Q 2057 620 2069 620 Q 2100 620 2121 595 Q 2142 571 2151 532 Q 2168 463 2168 386 Q 2168 207 2101 96 Q 2035 -15 1971 -15 Q 1925 -15 1902 83 Q 1880 181 1880 332 Q 1820 82 1753 16 Q 1720 -15 1682 -15 Q 1662 -15 1642 2 Q 1623 20 1614 49 Q 1594 108 1594 274 Q 1552 280 1519 296 Q 1503 304 1503 314 Q 1503 324 1523 324 L 1595 309 Q 1604 482 1660 576 Q 1690 627 1727 627 Q 1794 627 1794 527 Q 1794 446 1763 372 Q 1732 298 1670 278 Q 1670 211 1678 158 Q 1694 53 1717 53 Q 1736 53 1767 110 Q 1798 168 1827 266 Q 1857 364 1866 459 Q 1867 473 1893 491 Q 1919 509 1929 509 Q 1955 509 1955 480 Z M 1670 309 Q 1713 326 1736 390 Q 1760 455 1760 492 Q 1760 530 1757 548 Q 1750 579 1738 579 Q 1716 579 1694 487 Q 1673 396 1670 309 Z M 2473 -5 Q 2434 -5 2414 11 Q 2407 18 2407 46 Q 2407 75 2409 123 Q 2383 58 2357 26 Q 2332 -5 2292 -5 Q 2252 -5 2222 32 Q 2192 70 2192 150 Q 2192 231 2237 293 Q 2283 355 2357 355 Q 2389 355 2429 313 Q 2437 324 2457 339 Q 2478 355 2492 355 Q 2507 355 2507 317 Q 2507 307 2501 278 Q 2496 249 2489 236 Q 2480 213 2480 73 Q 2480 46 2486 46 Q 2503 47 2533 88 Q 2563 130 2592 195 Q 2622 260 2628 260 Q 2635 260 2635 252 Q 2635 224 2606 163 Q 2527 -5 2473 -5 Z M 2351 315 Q 2323 315 2291 273 Q 2260 232 2260 176 Q 2260 120 2276 84 Q 2293 48 2320 48 Q 2353 48 2417 213 Q 2418 221 2419 240 Q 2421 260 2422 270 Q 2413 286 2390 300 Q 2368 315 2351 315 Z M 2648 -5 Q 2626 -5 2607 0 Q 2589 6 2585 11 Q 2575 23 2575 135 Q 2575 248 2600 441 Q 2621 600 2698 600 Q 2716 600 2724 580 Q 2732 561 2732 543 Q 2732 413 2653 252 Q 2650 169 2650 107 Q 2650 46 2661 46 Q 2678 47 2708 88 Q 2738 130 2767 195 Q 2797 260 2803 260 Q 2810 260 2810 252 Q 2810 224 2781 163 Q 2702 -5 2648 -5 Z M 2707 534 Q 2707 566 2699 566 Q 2669 566 2655 317 Q 2707 454 2707 534 Z M 2823 -5 Q 2801 -5 2782 0 Q 2764 6 2760 11 Q 2750 23 2750 135 Q 2750 248 2775 441 Q 2796 600 2873 600 Q 2891 600 2899 580 Q 2907 561 2907 543 Q 2907 413 2828 252 Q 2825 169 2825 107 Q 2825 46 2836 46 Q 2853 47 2883 88 Q 2913 130 2942 195 Q 2972 260 2978 260 Q 2985 260 2985 252 Q 2985 224 2956 163 Q 2877 -5 2823 -5 Z M 2882 534 Q 2882 566 2874 566 Q 2844 566 2830 317 Q 2882 454 2882 534 Z M 2925 87 L 2931 199 Q 2931 306 2941 316 Q 2951 326 2976 345 Q 3002 365 3013 365 Q 3025 365 3028 361 Q 3031 357 3031 345 Q 3031 302 3012 258 Q 2997 166 2997 107 Q 2997 48 3011 48 Q 3035 48 3066 90 Q 3098 133 3131 216 Q 3132 238 3133 262 Q 3134 287 3135 298 Q 3136 310 3136 315 Q 3137 320 3164 342 Q 3191 365 3205 365 Q 3220 365 3220 327 Q 3220 317 3214 288 Q 3209 259 3202 246 Q 3194 175 3191 122 Q 3289 246 3295 253 Q 3302 260 3307 260 Q 3317 260 3317 250 Q 3317 244 3313 237 Q 3281 190 3187 72 Q 3181 -47 3179 -90 Q 3174 -217 3143 -269 Q 3113 -320 3035 -320 Q 3001 -320 2971 -300 Q 2942 -279 2942 -229 Q 2942 -178 2980 -125 Q 3019 -72 3121 38 L 3127 147 Q 3093 72 3060 33 Q 3027 -5 2987 -5 Q 2947 -5 2936 15 Q 2925 35 2925 87 Z M 3113 -107 L 3118 -9 Q 3004 -132 3004 -206 Q 3004 -240 3016 -262 Q 3028 -284 3049 -284 Q 3081 -284 3094 -249 Q 3107 -214 3113 -107 Z" stroke-linecap="round"/>
  </g>
  <g transform="matrix(0.69, 0, 0, 0.88, 742.428611, 290.910684)">
    <g style="" vector-effect="non-scaling-stroke">
      <g transform="matrix(1 0 0 1 69 -0.5)">
        <path style="stroke: none; stroke-width: 1; stroke-dasharray: none; stroke-linecap: butt; stroke-dashoffset: 0; stroke-linejoin: miter; stroke-miterlimit: 4; fill: rgb(0,0,0); fill-rule: nonzero; opacity: 1;" vector-effect="non-scaling-stroke" transform=" translate(-180.5, -111)" d="M 223 94.5 C 223 88.425 218.075 83.5 212 83.5 L 149 83.5 C 142.925 83.5 138 88.425 138 94.5 L 138 127.5 C 138 133.575 142.925 138.5 149 138.5 L 212 138.5 C 218.075 138.5 223 133.575 223 127.5 L 223 94.5 z M 169.515 123.967 C 162.433 123.967 156.69199999999998 118.226 156.69199999999998 111.144 C 156.69199999999998 104.06200000000001 162.433 98.321 169.515 98.321 C 176.59699999999998 98.321 182.338 104.062 182.338 111.144 C 182.338 118.225 176.597 123.967 169.515 123.967 z" stroke-linecap="round"/>
      </g>
      <g transform="matrix(1 0 0 1 -9 0)">
        <path style="stroke: none; stroke-width: 1; stroke-dasharray: none; stroke-linecap: butt; stroke-dashoffset: 0; stroke-linejoin: miter; stroke-miterlimit: 4; fill: rgb(0,0,0); fill-rule: nonzero; opacity: 1;" vector-effect="non-scaling-stroke" transform=" translate(-102.5, -111.5)" d="M 123.509 68.5 L 205 68.5 L 205 35.5 C 205 27.229 198.605 20.5 190.333 20.5 L 15.332999999999998 20.5 C 7.062 20.5 0 27.229 0 35.5 L 0 187.5 C 0 195.77100000000002 7.062 202.5 15.333 202.5 L 190.333 202.5 C 198.60399999999998 202.5 205 195.771 205 187.5 L 205 153.5 L 123.658 153.5 L 123.509 68.5 z" stroke-linecap="round"/>
      </g>
    </g>
  </g>
</svg>